#!OML:ASF H:\Terrain\Walking\May29\JustinRory\Justin.ASF
:FULLY-SPECIFIED
:DEGREES
433
root 6.92721 11.7764 -17.5846 5.62705 12.1541 -9.71914
lowerback 33.3584 -2.33109 -2.94157
upperback 4.35688 -2.36176 11.1999
thorax -12.1243 -0.749141 15.1035
lowerneck -18.0598 -3.54581 -7.82664
upperneck 12.0639 -4.07307 7.68641
head 6.96526 -1.64528 3.32648
rclavicle 5.1684e-014 -1.59028e-014
rhumerus -33.6263 -18.9102 -42.8556
rradius 115.113
rwrist -41.2378
rhand -25.1667 43.3911
rfingers 7.12502
rthumb 1.35058 13.4156
lclavicle 5.1684e-014 -1.59028e-014
lhumerus 11.0527 32.1886 42.865
lradius 82.1151
lwrist 38.3743
lhand -9.98802 29.2204
lfingers 7.12502
lthumb 15.9952 58.58
rfemur -69.9577 -20.5134 35.0307
rtibia 112.637
rfoot -34.7686 -11.4646
rtoes -22.9965
lfemur -77.1858 32.9579 -10.841
ltibia 109.594
lfoot -35.6454 -30.4723
ltoes -9.6852
434
root 6.93708 11.6996 -17.5806 5.48935 11.8588 -9.7227
lowerback 33.3218 -2.28226 -2.72161
upperback 4.48221 -2.25574 11.0335
thorax -11.9927 -0.728831 14.7126
lowerneck -18.4859 -3.83286 -7.9385
upperneck 12.6753 -4.44542 7.74531
head 7.27077 -1.81283 3.322
rclavicle 3.1408e-014 -6.12257e-014
rhumerus -33.3266 -19.2204 -42.6455
rradius 114.247
rwrist -41.6887
rhand -25.5041 43.2011
rfingers 7.12502
rthumb 1.02472 13.2238
lclavicle 3.1408e-014 -6.12257e-014
lhumerus 10.1342 31.7204 42.1217
lradius 83.429
lwrist 38.3085
lhand -10.1543 29.0185
lfingers 7.12502
lthumb 15.835 58.3909
rfemur -70.4426 -20.6937 35.0224
rtibia 113.45
rfoot -34.5676 -10.9974
rtoes -24.3436
lfemur -77.3455 33.3195 -10.6668
ltibia 110.245
lfoot -35.3755 -31.1107
ltoes -7.48111
435
root 6.96327 11.6252 -17.5753 5.46854 11.4443 -8.92946
lowerback 33.3051 -2.1808 -2.97521
upperback 4.55986 -2.28624 10.6066
thorax -11.8712 -0.753179 14.3507
lowerneck -18.5264 -3.99853 -8.06304
upperneck 12.7406 -4.62479 7.66719
head 7.31467 -1.91086 3.2943
rclavicle -9.70069e-014 6.2816e-014
rhumerus -32.7901 -19.5267 -42.2081
rradius 113.282
rwrist -42.3096
rhand -25.4777 42.684
rfingers 7.12502
rthumb 1.05024 12.7068
lclavicle -9.70069e-014 6.2816e-014
lhumerus 8.9942 31.4503 41.4254
lradius 84.9172
lwrist 38.1782
lhand -9.63366 28.9329
lfingers 7.12502
lthumb 16.3364 58.2649
rfemur -70.905 -21.2709 34.0925
rtibia 114.279
rfoot -34.338 -10.3169
rtoes -24.8658
lfemur -77.2025 33.3254 -11.2354
ltibia 110.882
lfoot -34.954 -31.7333
ltoes -4.10824
436
root 6.99505 11.5595 -17.562 5.3677 11.1678 -7.89621
lowerback 33.3216 -2.11404 -3.3275
upperback 4.6485 -2.40128 10.1289
thorax -11.7272 -0.814721 14.0229
lowerneck -18.2406 -4.10072 -8.3664
upperneck 12.5324 -4.72716 7.84848
head 7.21932 -1.96501 3.39231
rclavicle -3.18055e-015 6.12257e-014
rhumerus -31.9745 -19.9968 -41.5677
rradius 112.13
rwrist -42.9061
rhand -25.3439 42.2767
rfingers 7.12502
rthumb 1.17941 12.3003
lclavicle -3.18055e-015 6.12257e-014
lhumerus 7.63384 31.3335 40.9978
lradius 86.5365
lwrist 37.6182
lhand -8.78201 28.7448
lfingers 7.12502
lthumb 17.1563 58.0074
rfemur -70.9906 -21.7313 32.6847
rtibia 115.062
rfoot -34.5205 -9.77477
rtoes -24.6347
lfemur -76.7853 33.027 -11.8957
ltibia 111.515
lfoot -35.0969 -31.8227
ltoes -3.39759
437
root 7.02229 11.5199 -17.5568 5.23944 10.7246 -7.04769
lowerback 33.3952 -2.03882 -3.57867
upperback 4.71594 -2.47065 9.63107
thorax -11.6463 -0.855096 13.6027
lowerneck -18.0855 -4.27698 -8.52733
upperneck 12.6094 -4.97325 8.02905
head 7.24889 -2.0774 3.45041
rclavicle 5.80451e-014 -6.67916e-014
rhumerus -30.9551 -20.3558 -40.9588
rradius 110.784
rwrist -43.3511
rhand -25.7131 42.5916
rfingers 7.12502
rthumb 0.822829 12.6135
lclavicle 5.80451e-014 -6.67916e-014
lhumerus 5.72305 31.1645 40.5338
lradius 88.5433
lwrist 36.6178
lhand -8.2868 28.4998
lfingers 7.12502
lthumb 17.6329 57.7202
rfemur -71.1931 -22.299 31.6463
rtibia 115.767
rfoot -34.6914 -9.16712
rtoes -24.6686
lfemur -76.3146 32.7912 -12.2897
ltibia 111.981
lfoot -35.6517 -31.4229
ltoes -7.15707
438
root 7.05897 11.4749 -17.5627 5.1726 9.68763 -6.63238
lowerback 33.3719 -1.81602 -3.46214
upperback 4.76937 -2.22885 9.09513
thorax -11.6264 -0.76259 12.804
lowerneck -18.0197 -4.46862 -8.42054
upperneck 12.9026 -5.27848 8.00228
head 7.35678 -2.2206 3.38879
rclavicle -4.96962e-014 1.59028e-015
rhumerus -30.055 -20.6586 -40.1527
rradius 109.379
rwrist -43.751
rhand -26.0345 42.6338
rfingers 7.12502
rthumb 0.51238 12.6547
lclavicle -4.96962e-014 1.59028e-015
lhumerus 3.64158 30.7685 40.0745
lradius 90.8131
lwrist 35.7097
lhand -8.37954 28.2753
lfingers 7.12502
lthumb 17.5436 57.5038
rfemur -71.6522 -21.9588 31.0846
rtibia 116.459
rfoot -34.4131 -8.98126
rtoes -25.2193
lfemur -76.1837 33.1992 -12.3083
ltibia 112.517
lfoot -35.685 -31.4435
ltoes -10.2815
439
root 7.11117 11.4296 -17.5689 5.0665 8.52795 -5.98591
lowerback 33.3517 -1.52002 -3.4336
upperback 4.88549 -1.93626 8.49471
thorax -11.5402 -0.649738 11.9639
lowerneck -17.5233 -4.57976 -8.59819
upperneck 12.6022 -5.46663 8.34467
head 7.20704 -2.30113 3.51166
rclavicle -2.94201e-014 -9.93923e-015
rhumerus -29.0708 -21.0686 -38.9691
rradius 107.902
rwrist -44.3218
rhand -26.2427 42.2983
rfingers 7.12502
rthumb 0.311293 12.3188
lclavicle -2.94201e-014 -9.93923e-015
lhumerus 1.61406 30.4891 40.0046
lradius 92.9958
lwrist 34.8093
lhand -8.2521 28.0352
lfingers 7.12502
lthumb 17.6663 57.2527
rfemur -71.9074 -21.7418 30.0922
rtibia 117.093
rfoot -34.0851 -8.42204
rtoes -25.75
lfemur -75.798 33.4428 -12.4038
ltibia 113.061
lfoot -35.0801 -32.1661
ltoes -9.66532
440
root 7.17129 11.3858 -17.5647 4.86319 7.57232 -4.9247
lowerback 33.4065 -1.32645 -3.65081
upperback 5.02884 -1.87195 7.80826
thorax -11.3947 -0.637065 11.2637
lowerneck -16.9615 -4.59086 -8.80295
upperneck 12.1946 -5.5109 8.69066
head 7.00055 -2.3173 3.65785
rclavicle -2.5842e-014 1.86858e-014
rhumerus -27.7661 -21.4603 -37.8179
rradius 106.315
rwrist -44.8363
rhand -26.6622 41.9599
rfingers 7.12502
rthumb -0.0938206 11.9802
lclavicle -2.5842e-014 1.86858e-014
lhumerus -0.543403 30.5688 40.0852
lradius 94.8474
lwrist 33.9084
lhand -8.05191 27.6046
lfingers 7.12502
lthumb 17.8589 56.8046
rfemur -71.9003 -22.1311 28.5037
rtibia 117.759
rfoot -34.031 -7.55524
rtoes -26.1118
lfemur -75.0053 33.1952 -12.7992
ltibia 113.547
lfoot -34.9111 -32.5458
ltoes -9.51109
441
root 7.23535 11.3389 -17.5568 4.60464 6.47579 -4.28159
lowerback 33.4167 -1.10926 -3.41168
upperback 5.21974 -1.60637 7.20311
thorax -11.229 -0.548017 10.3235
lowerneck -16.5385 -4.72444 -9.04043
upperneck 11.8478 -5.69237 8.95166
head 6.84946 -2.40548 3.76374
rclavicle 3.1408e-014 -7.87187e-014
rhumerus -26.3425 -22.0061 -36.5471
rradius 104.493
rwrist -45.4055
rhand -26.6585 41.6802
rfingers 7.12502
rthumb -0.0902465 11.7004
lclavicle 3.1408e-014 -7.87187e-014
lhumerus -2.68193 30.6463 40.3822
lradius 96.678
lwrist 33.379
lhand -8.13539 27.3256
lfingers 7.12502
lthumb 17.7786 56.5329
rfemur -71.7773 -22.0407 27.2637
rtibia 118.333
rfoot -33.9999 -6.98451
rtoes -26.2903
lfemur -74.3121 33.3318 -12.7552
ltibia 114.085
lfoot -34.8616 -33.0291
ltoes -10.1435
442
root 7.29783 11.3063 -17.5545 4.27181 5.10519 -4.26622
lowerback 33.5164 -0.802015 -2.5951
upperback 5.43757 -1.0104 6.71449
thorax -11.1296 -0.32131 9.07491
lowerneck -16.287 -5.12592 -9.59098
upperneck 11.5224 -6.22063 9.62681
head 6.79467 -2.63668 4.01552
rclavicle -1.43125e-014 9.54166e-015
rhumerus -25.0041 -22.6449 -35.049
rradius 102.494
rwrist -46.4301
rhand -26.5085 41.6438
rfingers 7.12502
rthumb 0.0546075 11.664
lclavicle -1.43125e-014 9.54166e-015
lhumerus -5.07146 30.5893 40.7881
lradius 98.825
lwrist 33.1382
lhand -7.91027 27.4229
lfingers 7.12502
lthumb 17.9952 56.6104
rfemur -71.4442 -21.0812 26.6489
rtibia 118.563
rfoot -33.8753 -6.46067
rtoes -26.316
lfemur -73.5755 33.8538 -11.8084
ltibia 114.601
lfoot -34.1676 -34.5625
ltoes -8.66245
443
root 7.36596 11.288 -17.5491 3.98074 3.68281 -3.89791
lowerback 33.6411 -0.49383 -2.03287
upperback 5.58307 -0.524476 6.04903
thorax -11.0744 -0.132312 7.82977
lowerneck -16.4254 -5.54663 -9.78214
upperneck 11.6736 -6.80608 9.98163
head 6.94719 -2.8921 4.09261
rclavicle 4.53229e-014 -2.42517e-014
rhumerus -23.8034 -23.1791 -33.6427
rradius 100.622
rwrist -47.6555
rhand -26.4229 40.9366
rfingers 7.12502
rthumb 0.137296 10.9569
lclavicle 4.53229e-014 -2.42517e-014
lhumerus -7.90873 30.4651 40.7948
lradius 101.025
lwrist 33.1445
lhand -7.74058 27.7102
lfingers 7.12502
lthumb 18.1584 56.8826
rfemur -71.119 -20.1457 25.6377
rtibia 118.665
rfoot -33.8156 -5.98045
rtoes -28.0432
lfemur -72.5033 33.9671 -11.1858
ltibia 114.94
lfoot -33.7015 -35.7778
ltoes -7.79106
